<svg width="16" height="16" viewBox="0 0 16 16" fill="none" xmlns="http://www.w3.org/2000/svg">
<rect x="0.5" y="0.5" width="15" height="15" rx="2.5" fill="#522193" stroke="#DDDDDD"/>
<path d="M6.73598 10.2539L11.1205 4.21381C11.224 4.07127 11.3447 4 11.4827 4C11.6206 4 11.7413 4.07127 11.8448 4.21381C11.9483 4.35635 12 4.52573 12 4.72196C12 4.91819 11.9483 5.08734 11.8448 5.2294L7.09812 11.7862C6.99465 11.9287 6.87394 12 6.73598 12C6.59802 12 6.4773 11.9287 6.37383 11.7862L4.14924 8.7216C4.04577 8.57906 3.9961 8.40992 4.00024 8.21416C4.00438 8.01841 4.05835 7.84903 4.16217 7.70601C4.26598 7.563 4.38894 7.49173 4.53104 7.4922C4.67314 7.49268 4.79592 7.56395 4.89939 7.70601L6.73598 10.2539Z" fill="#DDDDDD"/>
</svg>
