<svg width="12" height="12" viewBox="0 0 12 12" fill="none" xmlns="http://www.w3.org/2000/svg">
<circle cx="6" cy="6" r="6" fill="#D9D9D9"/>
<path d="M7.94139 7.65841C7.95997 7.67699 7.97471 7.69905 7.98477 7.72332C7.99482 7.7476 8 7.77362 8 7.7999C8 7.82618 7.99482 7.8522 7.98477 7.87647C7.97471 7.90075 7.95997 7.92281 7.94139 7.94139C7.92281 7.95997 7.90075 7.97471 7.87647 7.98477C7.8522 7.99482 7.82618 8 7.7999 8C7.77362 8 7.7476 7.99482 7.72332 7.98477C7.69905 7.97471 7.67699 7.95997 7.65841 7.94139L6 6.28273L4.34159 7.94139C4.30407 7.97892 4.25317 8 4.2001 8C4.14703 8 4.09613 7.97892 4.05861 7.94139C4.02108 7.90387 4 7.85297 4 7.7999C4 7.74683 4.02108 7.69593 4.05861 7.65841L5.71727 6L4.05861 4.34159C4.02108 4.30407 4 4.25317 4 4.2001C4 4.14703 4.02108 4.09613 4.05861 4.05861C4.09613 4.02108 4.14703 4 4.2001 4C4.25317 4 4.30407 4.02108 4.34159 4.05861L6 5.71727L7.65841 4.05861C7.69593 4.02108 7.74683 4 7.7999 4C7.85297 4 7.90387 4.02108 7.94139 4.05861C7.97892 4.09613 8 4.14703 8 4.2001C8 4.25317 7.97892 4.30407 7.94139 4.34159L6.28273 6L7.94139 7.65841Z" fill="#222222"/>
</svg>
