<svg width="32" height="32" viewBox="0 0 32 32" fill="none" xmlns="http://www.w3.org/2000/svg">
<rect width="32" height="32" rx="16" fill="#202123" fill-opacity="0.1"/>
<path d="M16 6.25C14.0716 6.25 12.1866 6.82183 10.5832 7.89317C8.97982 8.96451 7.73013 10.4873 6.99218 12.2688C6.25422 14.0504 6.06114 16.0108 6.43735 17.9021C6.81355 19.7934 7.74215 21.5307 9.10571 22.8943C10.4693 24.2579 12.2066 25.1865 14.0979 25.5627C15.9892 25.9389 17.9496 25.7458 19.7312 25.0078C21.5127 24.2699 23.0355 23.0202 24.1068 21.4168C25.1782 19.8134 25.75 17.9284 25.75 16C25.7473 13.415 24.7192 10.9366 22.8913 9.10872C21.0634 7.28084 18.585 6.25273 16 6.25ZM15.625 10.75C15.8475 10.75 16.065 10.816 16.25 10.9396C16.435 11.0632 16.5792 11.2389 16.6644 11.4445C16.7495 11.65 16.7718 11.8762 16.7284 12.0945C16.685 12.3127 16.5778 12.5132 16.4205 12.6705C16.2632 12.8278 16.0627 12.935 15.8445 12.9784C15.6263 13.0218 15.4001 12.9995 15.1945 12.9144C14.9889 12.8292 14.8132 12.685 14.6896 12.5C14.566 12.315 14.5 12.0975 14.5 11.875C14.5 11.5766 14.6185 11.2905 14.8295 11.0795C15.0405 10.8685 15.3266 10.75 15.625 10.75ZM16.75 21.25C16.3522 21.25 15.9706 21.092 15.6893 20.8107C15.408 20.5294 15.25 20.1478 15.25 19.75V16C15.0511 16 14.8603 15.921 14.7197 15.7803C14.579 15.6397 14.5 15.4489 14.5 15.25C14.5 15.0511 14.579 14.8603 14.7197 14.7197C14.8603 14.579 15.0511 14.5 15.25 14.5C15.6478 14.5 16.0294 14.658 16.3107 14.9393C16.592 15.2206 16.75 15.6022 16.75 16V19.75C16.9489 19.75 17.1397 19.829 17.2803 19.9697C17.421 20.1103 17.5 20.3011 17.5 20.5C17.5 20.6989 17.421 20.8897 17.2803 21.0303C17.1397 21.171 16.9489 21.25 16.75 21.25Z" fill="#2D3438"/>
</svg>
