<svg width="32" height="32" viewBox="0 0 32 32" fill="none" xmlns="http://www.w3.org/2000/svg">
<rect width="32" height="32" rx="16" fill="#F04349" fill-opacity="0.1"/>
<path d="M16 6.25C14.0716 6.25 12.1866 6.82183 10.5832 7.89317C8.97982 8.96451 7.73013 10.4873 6.99218 12.2688C6.25422 14.0504 6.06114 16.0108 6.43735 17.9021C6.81355 19.7934 7.74215 21.5307 9.10571 22.8943C10.4693 24.2579 12.2066 25.1865 14.0979 25.5627C15.9892 25.9389 17.9496 25.7458 19.7312 25.0078C21.5127 24.2699 23.0355 23.0202 24.1068 21.4168C25.1782 19.8134 25.75 17.9284 25.75 16C25.7473 13.415 24.7192 10.9366 22.8913 9.10872C21.0634 7.28084 18.585 6.25273 16 6.25ZM15.25 11.5C15.25 11.3011 15.329 11.1103 15.4697 10.9697C15.6103 10.829 15.8011 10.75 16 10.75C16.1989 10.75 16.3897 10.829 16.5303 10.9697C16.671 11.1103 16.75 11.3011 16.75 11.5V16.75C16.75 16.9489 16.671 17.1397 16.5303 17.2803C16.3897 17.421 16.1989 17.5 16 17.5C15.8011 17.5 15.6103 17.421 15.4697 17.2803C15.329 17.1397 15.25 16.9489 15.25 16.75V11.5ZM16 21.25C15.7775 21.25 15.56 21.184 15.375 21.0604C15.19 20.9368 15.0458 20.7611 14.9606 20.5555C14.8755 20.35 14.8532 20.1238 14.8966 19.9055C14.94 19.6873 15.0472 19.4868 15.2045 19.3295C15.3618 19.1722 15.5623 19.065 15.7805 19.0216C15.9988 18.9782 16.225 19.0005 16.4305 19.0856C16.6361 19.1708 16.8118 19.315 16.9354 19.5C17.059 19.685 17.125 19.9025 17.125 20.125C17.125 20.4234 17.0065 20.7095 16.7955 20.9205C16.5845 21.1315 16.2984 21.25 16 21.25Z" fill="#F04349"/>
</svg>
