<svg width="32" height="32" viewBox="0 0 32 32" fill="none" xmlns="http://www.w3.org/2000/svg">
<g clip-path="url(#clip0_2_21595)">
<rect x="4" y="4" width="24" height="24" rx="6" fill="#F04349"/>
<path d="M15.25 16.75V11.5C15.25 11.3011 15.329 11.1103 15.4697 10.9697C15.6103 10.829 15.8011 10.75 16 10.75C16.1989 10.75 16.3897 10.829 16.5303 10.9697C16.671 11.1103 16.75 11.3011 16.75 11.5V16.75C16.75 16.9489 16.671 17.1397 16.5303 17.2803C16.3897 17.421 16.1989 17.5 16 17.5C15.8011 17.5 15.6103 17.421 15.4697 17.2803C15.329 17.1397 15.25 16.9489 15.25 16.75ZM17.125 20.125C17.125 20.3475 17.059 20.565 16.9354 20.75C16.8118 20.935 16.6361 21.0792 16.4305 21.1644C16.225 21.2495 15.9988 21.2718 15.7805 21.2284C15.5623 21.185 15.3618 21.0778 15.2045 20.9205C15.0472 20.7632 14.94 20.5627 14.8966 20.3445C14.8532 20.1262 14.8755 19.9 14.9606 19.6945C15.0458 19.4889 15.19 19.3132 15.375 19.1896C15.56 19.066 15.7775 19 16 19C16.2984 19 16.5845 19.1185 16.7955 19.3295C17.0065 19.5405 17.125 19.8266 17.125 20.125Z" fill="white"/>
</g>
<defs>
<clipPath id="clip0_2_21595">
<rect x="4" y="4" width="24" height="24" rx="6" fill="white"/>
</clipPath>
</defs>
</svg>
