<svg width="32" height="32" viewBox="0 0 32 32" fill="none" xmlns="http://www.w3.org/2000/svg">
<g clip-path="url(#clip0_2_21590)">
<rect x="4" y="4" width="24" height="24" rx="6" fill="#01E17B"/>
<path d="M20.281 13.22C20.3508 13.2896 20.4061 13.3723 20.4438 13.4634C20.4816 13.5544 20.501 13.652 20.501 13.7506C20.501 13.8492 20.4816 13.9467 20.4438 14.0378C20.4061 14.1288 20.3508 14.2116 20.281 14.2812L15.031 19.5312C14.9614 19.6009 14.8787 19.6563 14.7876 19.694C14.6966 19.7318 14.599 19.7512 14.5004 19.7512C14.4019 19.7512 14.3043 19.7318 14.2132 19.694C14.1222 19.6563 14.0394 19.6009 13.9698 19.5312L11.7198 17.2812C11.5791 17.1405 11.5 16.9496 11.5 16.7506C11.5 16.5516 11.5791 16.3607 11.7198 16.22C11.8605 16.0792 12.0514 16.0002 12.2504 16.0002C12.4494 16.0002 12.6403 16.0792 12.781 16.22L14.5004 17.9403L19.2198 13.22C19.2894 13.1502 19.3722 13.0949 19.4632 13.0572C19.5543 13.0194 19.6519 13 19.7504 13C19.849 13 19.9466 13.0194 20.0376 13.0572C20.1287 13.0949 20.2114 13.1502 20.281 13.22Z" fill="white"/>
</g>
<defs>
<clipPath id="clip0_2_21590">
<rect x="4" y="4" width="24" height="24" rx="6" fill="white"/>
</clipPath>
</defs>
</svg>
