<svg width="32" height="32" viewBox="0 0 32 32" fill="none" xmlns="http://www.w3.org/2000/svg">
<rect width="32" height="32" rx="16" fill="#01E17B" fill-opacity="0.1"/>
<path d="M16 6.25C14.0716 6.25 12.1866 6.82183 10.5832 7.89317C8.97982 8.96451 7.73013 10.4873 6.99218 12.2688C6.25422 14.0504 6.06114 16.0108 6.43735 17.9021C6.81355 19.7934 7.74215 21.5307 9.10571 22.8943C10.4693 24.2579 12.2066 25.1865 14.0979 25.5627C15.9892 25.9389 17.9496 25.7458 19.7312 25.0078C21.5127 24.2699 23.0355 23.0202 24.1068 21.4168C25.1782 19.8134 25.75 17.9284 25.75 16C25.7473 13.415 24.7192 10.9366 22.8913 9.10872C21.0634 7.28084 18.585 6.25273 16 6.25ZM20.2806 14.2806L15.0306 19.5306C14.961 19.6004 14.8783 19.6557 14.7872 19.6934C14.6962 19.7312 14.5986 19.7506 14.5 19.7506C14.4014 19.7506 14.3038 19.7312 14.2128 19.6934C14.1218 19.6557 14.039 19.6004 13.9694 19.5306L11.7194 17.2806C11.5786 17.1399 11.4996 16.949 11.4996 16.75C11.4996 16.551 11.5786 16.3601 11.7194 16.2194C11.8601 16.0786 12.051 15.9996 12.25 15.9996C12.449 15.9996 12.6399 16.0786 12.7806 16.2194L14.5 17.9397L19.2194 13.2194C19.2891 13.1497 19.3718 13.0944 19.4628 13.0567C19.5539 13.019 19.6515 12.9996 19.75 12.9996C19.8486 12.9996 19.9461 13.019 20.0372 13.0567C20.1282 13.0944 20.2109 13.1497 20.2806 13.2194C20.3503 13.2891 20.4056 13.3718 20.4433 13.4628C20.481 13.5539 20.5004 13.6515 20.5004 13.75C20.5004 13.8485 20.481 13.9461 20.4433 14.0372C20.4056 14.1282 20.3503 14.2109 20.2806 14.2806Z" fill="#01E17B"/>
</svg>
