<svg width="23" height="17" viewBox="0 0 23 17" fill="none" xmlns="http://www.w3.org/2000/svg">
<path d="M22.2003 9.68513C22.1215 9.74422 22.0318 9.78722 21.9364 9.81166C21.841 9.83611 21.7417 9.84152 21.6442 9.82759C21.5467 9.81366 21.4529 9.78066 21.3682 9.73048C21.2834 9.6803 21.2094 9.61392 21.1503 9.53513C20.6982 8.9275 20.1098 8.43449 19.4324 8.0958C18.7551 7.75711 18.0076 7.58219 17.2503 7.58513C17.1028 7.58511 16.9586 7.54162 16.8357 7.46008C16.7128 7.37854 16.6167 7.26257 16.5593 7.12669C16.5204 7.03442 16.5004 6.93528 16.5004 6.83513C16.5004 6.73498 16.5204 6.63584 16.5593 6.54357C16.6167 6.40768 16.7128 6.29172 16.8357 6.21018C16.9586 6.12864 17.1028 6.08514 17.2503 6.08513C17.6711 6.08509 18.0835 5.96704 18.4406 5.74439C18.7976 5.52173 19.0851 5.2034 19.2704 4.82554C19.4556 4.44769 19.5312 4.02546 19.4885 3.60681C19.4458 3.18817 19.2865 2.78989 19.0288 2.45721C18.7711 2.12454 18.4253 1.8708 18.0306 1.72483C17.6359 1.57886 17.2082 1.5465 16.796 1.63143C16.3838 1.71635 16.0038 1.91516 15.6989 2.20528C15.3941 2.49539 15.1767 2.86517 15.0715 3.27263C15.0469 3.36804 15.0037 3.45767 14.9445 3.5364C14.8852 3.61513 14.811 3.68141 14.7261 3.73147C14.6413 3.78152 14.5474 3.81437 14.4498 3.82814C14.3522 3.8419 14.2529 3.83631 14.1575 3.81169C14.0621 3.78707 13.9724 3.74389 13.8937 3.68463C13.815 3.62537 13.7487 3.55118 13.6986 3.4663C13.6486 3.38142 13.6157 3.28752 13.602 3.18994C13.5882 3.09237 13.5938 2.99304 13.6184 2.89763C13.7644 2.33261 14.0403 1.80947 14.4241 1.36983C14.8079 0.930196 15.289 0.586196 15.8291 0.365207C16.3692 0.144217 16.9534 0.0523364 17.5353 0.0968756C18.1172 0.141415 18.6807 0.321145 19.1809 0.621764C19.681 0.922384 20.1042 1.3356 20.4166 1.82852C20.729 2.32145 20.922 2.88048 20.9803 3.46114C21.0387 4.0418 20.9607 4.62806 20.7526 5.17327C20.5444 5.71848 20.2119 6.20759 19.7815 6.60169C20.8014 7.04325 21.6879 7.74395 22.3531 8.63419C22.4122 8.71318 22.4551 8.80306 22.4794 8.89867C22.5037 8.99428 22.5089 9.09374 22.4947 9.19136C22.4805 9.28899 22.4472 9.38285 22.3967 9.46758C22.3462 9.55231 22.2794 9.62623 22.2003 9.68513ZM17.149 15.4601C17.2033 15.5455 17.2397 15.6409 17.2562 15.7408C17.2726 15.8406 17.2686 15.9427 17.2446 16.0409C17.2205 16.1392 17.1768 16.2315 17.1161 16.3125C17.0554 16.3934 16.979 16.4612 16.8914 16.5118C16.8039 16.5624 16.7069 16.5948 16.6065 16.607C16.5061 16.6192 16.4043 16.611 16.3071 16.5828C16.21 16.5546 16.1195 16.5071 16.0412 16.443C15.963 16.379 15.8984 16.2998 15.8515 16.2101C15.3791 15.4101 14.7062 14.7471 13.8993 14.2866C13.0924 13.826 12.1794 13.5838 11.2503 13.5838C10.3212 13.5838 9.40816 13.826 8.60126 14.2866C7.79436 14.7471 7.12149 15.4101 6.64903 16.2101C6.60215 16.2998 6.53762 16.379 6.45932 16.443C6.38102 16.5071 6.29058 16.5546 6.19344 16.5828C6.09629 16.611 5.99445 16.6192 5.89403 16.607C5.79362 16.5948 5.69671 16.5624 5.60914 16.5118C5.52156 16.4612 5.44513 16.3934 5.38445 16.3125C5.32376 16.2315 5.28007 16.1392 5.25601 16.0409C5.23194 15.9427 5.228 15.8406 5.24441 15.7408C5.26083 15.6409 5.29727 15.5455 5.35153 15.4601C6.07866 14.2108 7.18734 13.2276 8.51466 12.6551C7.76778 12.0833 7.21887 11.2918 6.9451 10.3918C6.67132 9.49191 6.68644 8.52881 6.98833 7.63791C7.29022 6.74702 7.8637 5.97313 8.62816 5.42501C9.39262 4.8769 10.3096 4.58212 11.2503 4.58212C12.1909 4.58212 13.1079 4.8769 13.8724 5.42501C14.6369 5.97313 15.2103 6.74702 15.5122 7.63791C15.8141 8.52881 15.8292 9.49191 15.5555 10.3918C15.2817 11.2918 14.7328 12.0833 13.9859 12.6551C15.3132 13.2276 16.4219 14.2108 17.149 15.4601ZM11.2503 12.0851C11.8436 12.0851 12.4236 11.9092 12.917 11.5795C13.4103 11.2499 13.7949 10.7814 14.0219 10.2332C14.249 9.685 14.3084 9.0818 14.1926 8.49986C14.0769 7.91791 13.7912 7.38337 13.3716 6.96381C12.952 6.54425 12.4175 6.25853 11.8356 6.14277C11.2536 6.02702 10.6504 6.08643 10.1022 6.31349C9.55406 6.54055 9.08552 6.92507 8.75588 7.41842C8.42623 7.91177 8.25028 8.49178 8.25028 9.08513C8.25028 9.88078 8.56635 10.6438 9.12896 11.2064C9.69157 11.7691 10.4546 12.0851 11.2503 12.0851ZM6.00028 6.83513C6.00028 6.63622 5.92127 6.44545 5.78061 6.3048C5.63996 6.16415 5.4492 6.08513 5.25028 6.08513C4.82947 6.08509 4.41709 5.96704 4.06 5.74439C3.70292 5.52173 3.41543 5.2034 3.23019 4.82554C3.04495 4.44769 2.96939 4.02546 3.01209 3.60681C3.0548 3.18817 3.21405 2.78989 3.47176 2.45721C3.72947 2.12454 4.07531 1.8708 4.47 1.72483C4.86469 1.57886 5.29241 1.5465 5.70457 1.63143C6.11672 1.71635 6.4968 1.91516 6.80164 2.20528C7.10647 2.49539 7.32383 2.86517 7.42903 3.27263C7.47876 3.46532 7.603 3.63037 7.77442 3.73147C7.94584 3.83256 8.1504 3.86142 8.3431 3.81169C8.53579 3.76196 8.70084 3.63772 8.80194 3.4663C8.90303 3.29488 8.93189 3.09032 8.88216 2.89763C8.73614 2.33261 8.46026 1.80947 8.07648 1.36983C7.6927 0.930196 7.21161 0.586196 6.67149 0.365207C6.13137 0.144217 5.54712 0.0523364 4.96524 0.0968756C4.38336 0.141415 3.81991 0.321145 3.31972 0.621764C2.81952 0.922384 2.39639 1.3356 2.08399 1.82852C1.77159 2.32145 1.57855 2.88048 1.52022 3.46114C1.4619 4.0418 1.5399 4.62806 1.74801 5.17327C1.95613 5.71848 2.28862 6.20759 2.71903 6.60169C1.70024 7.04367 0.814704 7.74434 0.150284 8.63419C0.0308127 8.79332 -0.0205517 8.99339 0.00749082 9.19039C0.0355334 9.38739 0.140686 9.56519 0.299816 9.68466C0.458946 9.80413 0.659018 9.8555 0.856019 9.82745C1.05302 9.79941 1.23081 9.69426 1.35028 9.53513C1.80233 8.9275 2.39073 8.43449 3.06812 8.0958C3.74551 7.75711 4.49295 7.58219 5.25028 7.58513C5.4492 7.58513 5.63996 7.50611 5.78061 7.36546C5.92127 7.22481 6.00028 7.03404 6.00028 6.83513Z" fill="#522193"/>
</svg>
