<svg width="22" height="16" viewBox="0 0 22 16" fill="none" xmlns="http://www.w3.org/2000/svg">
<path d="M4.33333 14.9999C4.40406 15 4.47696 15 4.55212 15H11M4.33333 14.9999C3.23525 14.9991 2.65926 14.9846 2.21311 14.7459C1.79497 14.5222 1.45526 14.1643 1.24221 13.7253C1 13.2262 1 12.5737 1 11.2669V4.73356C1 3.42677 1 2.77289 1.24221 2.27376C1.45526 1.83472 1.79497 1.47802 2.21311 1.25432C2.68847 1 3.31121 1 4.55577 1H17.4447C18.6892 1 19.3106 1 19.786 1.25432C20.2041 1.47802 20.545 1.83472 20.758 2.27376C21 2.7724 21 3.42549 21 4.72973V11.2703C21 12.5745 21 13.2267 20.758 13.7253C20.545 14.1643 20.2041 14.5222 19.786 14.7459C19.3111 15 18.69 15 17.4479 15H11M4.33333 14.9999C4.33338 13.7113 5.82574 12.6667 7.66667 12.6667C9.50762 12.6667 11 13.7113 11 15M4.33333 14.9999C4.33333 15 4.33333 14.9999 4.33333 14.9999ZM17.6667 10.3333H13.2222M17.6667 6.83333H14.3333M7.66667 9.16667C6.43937 9.16667 5.44444 8.122 5.44444 6.83333C5.44444 5.54467 6.43937 4.5 7.66667 4.5C8.89397 4.5 9.88889 5.54467 9.88889 6.83333C9.88889 8.122 8.89397 9.16667 7.66667 9.16667Z" stroke="#522193" stroke-width="1.5" stroke-linecap="round" stroke-linejoin="round"/>
</svg>
