<svg width="24" height="17" viewBox="0 0 24 17" fill="none" xmlns="http://www.w3.org/2000/svg">
<path d="M22.5 15H21.75V2.25C21.75 1.85218 21.592 1.47064 21.3107 1.18934C21.0294 0.908035 20.6478 0.75 20.25 0.75H3.75C3.35218 0.75 2.97064 0.908035 2.68934 1.18934C2.40804 1.47064 2.25 1.85218 2.25 2.25V15H1.5C1.30109 15 1.11032 15.079 0.96967 15.2197C0.829018 15.3603 0.75 15.5511 0.75 15.75C0.75 15.9489 0.829018 16.1397 0.96967 16.2803C1.11032 16.421 1.30109 16.5 1.5 16.5H22.5C22.6989 16.5 22.8897 16.421 23.0303 16.2803C23.171 16.1397 23.25 15.9489 23.25 15.75C23.25 15.5511 23.171 15.3603 23.0303 15.2197C22.8897 15.079 22.6989 15 22.5 15ZM3.75 2.25H20.25V15H18.75V12.75C18.75 12.5511 18.671 12.3603 18.5303 12.2197C18.3897 12.079 18.1989 12 18 12H11.25C11.0511 12 10.8603 12.079 10.7197 12.2197C10.579 12.3603 10.5 12.5511 10.5 12.75V15H6.75V5.25H17.25V9.75C17.25 9.94891 17.329 10.1397 17.4697 10.2803C17.6103 10.421 17.8011 10.5 18 10.5C18.1989 10.5 18.3897 10.421 18.5303 10.2803C18.671 10.1397 18.75 9.94891 18.75 9.75V4.5C18.75 4.30109 18.671 4.11032 18.5303 3.96967C18.3897 3.82902 18.1989 3.75 18 3.75H6C5.80109 3.75 5.61032 3.82902 5.46967 3.96967C5.32902 4.11032 5.25 4.30109 5.25 4.5V15H3.75V2.25ZM17.25 15H12V13.5H17.25V15Z" fill="#522193"/>
</svg>
