<svg width="18" height="18" viewBox="0 0 18 18" fill="none" xmlns="http://www.w3.org/2000/svg">
<path d="M16.5 0H1.5C1.10218 0 0.720644 0.158035 0.43934 0.43934C0.158035 0.720644 0 1.10218 0 1.5V16.5C0 16.8978 0.158035 17.2794 0.43934 17.5607C0.720644 17.842 1.10218 18 1.5 18H16.5C16.8978 18 17.2794 17.842 17.5607 17.5607C17.842 17.2794 18 16.8978 18 16.5V1.5C18 1.10218 17.842 0.720644 17.5607 0.43934C17.2794 0.158035 16.8978 0 16.5 0ZM6 8.25C6 7.65666 6.17595 7.07664 6.50559 6.58329C6.83524 6.08994 7.30377 5.70542 7.85195 5.47836C8.40013 5.2513 9.00333 5.19189 9.58527 5.30764C10.1672 5.4234 10.7018 5.70912 11.1213 6.12868C11.5409 6.54824 11.8266 7.08279 11.9424 7.66473C12.0581 8.24667 11.9987 8.84987 11.7716 9.39805C11.5446 9.94623 11.1601 10.4148 10.6667 10.7444C10.1734 11.0741 9.59334 11.25 9 11.25C8.20435 11.25 7.44129 10.9339 6.87868 10.3713C6.31607 9.80871 6 9.04565 6 8.25ZM3.43781 16.5C3.82161 15.5551 4.43863 14.723 5.23125 14.0812C6.29842 13.2198 7.62851 12.7499 9 12.7499C10.3715 12.7499 11.7016 13.2198 12.7687 14.0812C13.5614 14.723 14.1784 15.5551 14.5622 16.5H3.43781ZM16.5 16.5H16.1559C15.8225 15.4384 15.2567 14.4645 14.4997 13.649C13.7427 12.8334 12.8135 12.1968 11.7797 11.7853C12.5157 11.2072 13.0531 10.414 13.3172 9.51613C13.5812 8.61826 13.5588 7.6604 13.2529 6.77589C12.9471 5.89138 12.3731 5.12424 11.6108 4.58126C10.8485 4.03828 9.93589 3.74648 9 3.74648C8.06411 3.74648 7.1515 4.03828 6.38922 4.58126C5.62694 5.12424 5.05292 5.89138 4.74707 6.77589C4.44123 7.6604 4.41877 8.61826 4.68283 9.51613C4.94689 10.414 5.48432 11.2072 6.22031 11.7853C5.18648 12.1968 4.25731 12.8334 3.50032 13.649C2.74333 14.4645 2.17754 15.4384 1.84406 16.5H1.5V1.5H16.5V16.5Z" fill="#522193"/>
</svg>
