<svg width="14" height="14" viewBox="0 0 14 14" fill="none" xmlns="http://www.w3.org/2000/svg">
<path d="M13.3539 12.6444L10.2245 9.51569C11.1315 8.42676 11.5838 7.03006 11.4873 5.61615C11.3908 4.20224 10.7528 2.87997 9.70623 1.92442C8.65963 0.968869 7.28492 0.453598 5.86808 0.485798C4.45125 0.517998 3.10137 1.09519 2.09926 2.0973C1.09714 3.09942 0.519951 4.4493 0.487751 5.86613C0.455551 7.28297 0.970822 8.65767 1.92637 9.70428C2.88193 10.7509 4.20419 11.3888 5.6181 11.4853C7.03201 11.5819 8.42871 11.1296 9.51764 10.2226L12.6464 13.3519C12.6928 13.3984 12.748 13.4352 12.8087 13.4604C12.8694 13.4855 12.9344 13.4985 13.0001 13.4985C13.0658 13.4985 13.1309 13.4855 13.1916 13.4604C13.2523 13.4352 13.3074 13.3984 13.3539 13.3519C13.4003 13.3055 13.4372 13.2503 13.4623 13.1896C13.4875 13.1289 13.5004 13.0639 13.5004 12.9982C13.5004 12.9325 13.4875 12.8674 13.4623 12.8067C13.4372 12.746 13.4003 12.6909 13.3539 12.6444ZM1.50014 5.99819C1.50014 5.10817 1.76406 4.23814 2.25853 3.49812C2.753 2.7581 3.4558 2.18133 4.27807 1.84073C5.10033 1.50014 6.00513 1.41102 6.87805 1.58466C7.75096 1.75829 8.55279 2.18687 9.18212 2.81621C9.81146 3.44555 10.24 4.24737 10.4137 5.12028C10.5873 5.9932 10.4982 6.898 10.1576 7.72026C9.81701 8.54253 9.24023 9.24534 8.50021 9.7398C7.76019 10.2343 6.89016 10.4982 6.00014 10.4982C4.80707 10.4969 3.66325 10.0223 2.81962 9.17871C1.976 8.33508 1.50147 7.19126 1.50014 5.99819Z" fill="#522193"/>
</svg>
