<svg width="12" height="12" viewBox="0 0 12 12" fill="none" xmlns="http://www.w3.org/2000/svg">
<path d="M4.95829 6.1212L8.83225 3.42611L9.42196 4.07407L6.37496 7.6778L4.95829 6.1212ZM3.79324 6.32679L6.0609 8.81842C6.10785 8.86492 6.16413 8.90094 6.22602 8.92408C6.28792 8.94722 6.35402 8.95696 6.41996 8.95267C6.4859 8.94837 6.55017 8.93014 6.60854 8.89916C6.66691 8.86818 6.71804 8.82517 6.75856 8.77297L10.4843 4.36649C10.5585 4.28493 10.6005 4.17915 10.6024 4.06889C10.6044 3.95864 10.5662 3.85143 10.4949 3.76729L9.23841 2.38671C9.16133 2.30784 9.05819 2.25972 8.94824 2.25132C8.83828 2.24292 8.72903 2.27481 8.64086 2.34105L3.90403 5.63646C3.84825 5.67189 3.80063 5.71876 3.7643 5.77396C3.72798 5.82916 3.70378 5.89145 3.69331 5.95669C3.68283 6.02194 3.68633 6.08867 3.70355 6.15247C3.72078 6.21626 3.75135 6.27568 3.79324 6.32679ZM1.39648 9.26465L4.20516 9.75079L4.94473 9.0777L3.43028 7.4137L1.39648 9.26465Z" fill="black"/>
</svg>
