<svg width="14" height="14" viewBox="0 0 14 14" fill="none" xmlns="http://www.w3.org/2000/svg">
<path d="M8.89557 6.88464C9.18119 6.71071 9.42222 6.47246 9.59946 6.18889C9.77669 5.90531 9.88523 5.58425 9.91641 5.2513C9.92182 4.95023 9.86786 4.65105 9.75762 4.37084C9.64739 4.09062 9.48303 3.83487 9.27393 3.6182C9.06483 3.40152 8.8151 3.22815 8.53899 3.108C8.26288 2.98786 7.96581 2.92328 7.66474 2.91797H3.87891V11.0846H7.96224C8.24874 11.0816 8.53184 11.0221 8.79537 10.9097C9.0589 10.7972 9.29769 10.6339 9.49811 10.4292C9.69854 10.2244 9.85666 9.98219 9.96347 9.71632C10.0703 9.45045 10.1237 9.16614 10.1206 8.87964V8.80964C10.1208 8.40545 10.0056 8.0096 9.78861 7.66861C9.57162 7.32761 9.2618 7.05564 8.89557 6.88464ZM5.04557 4.08464H7.49557C7.74417 4.07694 7.98918 4.14547 8.19772 4.28102C8.40625 4.41657 8.56835 4.61265 8.66224 4.84297C8.75725 5.15084 8.72652 5.48381 8.57677 5.7691C8.42702 6.05439 8.17043 6.2688 7.86307 6.36547C7.74371 6.40045 7.61995 6.41813 7.49557 6.41797H5.04557V4.08464ZM7.72891 9.91797H5.04557V7.58464H7.72891C7.97751 7.57694 8.22251 7.64547 8.43105 7.78102C8.63959 7.91657 8.80168 8.11265 8.89557 8.34297C8.99058 8.65084 8.95986 8.98381 8.81011 9.2691C8.66036 9.55439 8.40376 9.7688 8.09641 9.86547C7.97705 9.90045 7.85329 9.91813 7.72891 9.91797Z" fill="black"/>
</svg>
