<svg width="14" height="14" viewBox="0 0 14 14" fill="none" xmlns="http://www.w3.org/2000/svg">
<path d="M6.85951 5.2513H8.02617L6.74284 11.0846H5.57617L6.85951 5.2513ZM7.8395 2.91797C7.72413 2.91797 7.61135 2.95218 7.51542 3.01628C7.41949 3.08038 7.34473 3.17148 7.30058 3.27807C7.25642 3.38466 7.24487 3.50195 7.26738 3.6151C7.28989 3.72826 7.34545 3.8322 7.42703 3.91378C7.50861 3.99536 7.61255 4.05092 7.7257 4.07343C7.83886 4.09593 7.95615 4.08438 8.06274 4.04023C8.16933 3.99608 8.26043 3.92131 8.32453 3.82538C8.38863 3.72946 8.42284 3.61667 8.42284 3.5013C8.42284 3.34659 8.36138 3.19822 8.25198 3.08882C8.14259 2.97943 7.99421 2.91797 7.8395 2.91797Z" fill="black"/>
</svg>
