<svg width="16" height="14" viewBox="0 0 16 14" fill="none" xmlns="http://www.w3.org/2000/svg">
<path d="M2 7.11855H14V7.99355H11.0895C11.2474 8.28359 11.3271 8.60149 11.3224 8.92274C11.3318 9.22753 11.257 9.52979 11.1045 9.80393C10.952 10.0781 10.7262 10.316 10.4462 10.4976C9.77194 10.9127 8.95851 11.1189 8.13501 11.0835C7.5333 11.0871 6.93746 10.9799 6.38611 10.7691C5.88258 10.5863 5.44612 10.286 5.12435 9.90099C4.82808 9.53338 4.67175 9.09343 4.67757 8.64364V8.5775H4.86906V8.57686H5.09672V8.5775H6.01333V8.64361C6.00289 8.84859 6.04921 9.05274 6.14836 9.23867C6.2475 9.42461 6.39653 9.58683 6.58275 9.71152C7.03436 9.99286 7.58134 10.1325 8.13499 10.1078C8.62375 10.1357 9.10965 10.0239 9.51943 9.78913C9.67135 9.69084 9.7934 9.56146 9.87491 9.41232C9.95642 9.26318 9.9949 9.09882 9.98697 8.93365C9.99759 8.77407 9.96391 8.61462 9.8888 8.46891C9.81368 8.3232 9.69937 8.19557 9.55563 8.09692C9.49673 8.05957 9.43555 8.02505 9.37236 7.99352H2V7.11855ZM10.8965 4.11839C10.6155 3.73631 10.2181 3.43051 9.74907 3.23545C9.22624 3.01752 8.65285 2.90847 8.07381 2.91683C7.2664 2.88651 6.47255 3.10586 5.83146 3.53641C5.55623 3.7224 5.33423 3.96187 5.18299 4.23587C5.03174 4.50987 4.95542 4.8109 4.96004 5.11515C4.95771 5.40349 5.03106 5.68845 5.17444 5.94807H6.90556C6.84997 5.91678 6.78198 5.88637 6.7371 5.85437C6.60146 5.76681 6.49134 5.65249 6.41572 5.52068C6.34009 5.38887 6.30109 5.24331 6.30188 5.09582C6.29182 4.92747 6.32828 4.75947 6.40817 4.60606C6.48806 4.45265 6.60903 4.31834 6.76083 4.21452C7.14489 3.98146 7.60725 3.86798 8.07381 3.89227C8.5811 3.86405 9.08205 4.00323 9.47781 4.28235C9.64332 4.41872 9.77294 4.58498 9.85767 4.76958C9.9424 4.95417 9.98021 5.15269 9.96848 5.35135V5.41751H11.3039V5.35135C11.3062 4.91467 11.1647 4.48664 10.8965 4.11839Z" fill="black"/>
</svg>
