<svg width="12" height="12" viewBox="0 0 12 12" fill="none" xmlns="http://www.w3.org/2000/svg">
<path d="M7.60078 6.747C7.60078 6.747 5.80078 8.697 5.80078 9.897C5.7975 10.1367 5.84145 10.3746 5.93013 10.5973C6.01882 10.82 6.15049 11.023 6.31763 11.1948C6.6552 11.5417 7.11676 11.7404 7.60078 11.747C8.0848 11.7536 8.55163 11.5677 8.89857 11.2301C9.07036 11.063 9.20755 10.8637 9.30229 10.6435C9.39704 10.4233 9.4475 10.1867 9.45078 9.947V9.897C9.45078 8.697 7.60078 6.747 7.60078 6.747ZM6.86578 6.0685L7.20028 5.7065L6.05078 2.5H5.05078L2.55078 9.5H3.55078L4.26578 7.5H5.73728C6.07662 6.99546 6.45317 6.51696 6.86378 6.0685H6.86578ZM5.55078 3.9L6.48078 6.5H4.62278L5.55078 3.9Z" fill="black"/>
</svg>
