<svg width="14" height="14" viewBox="0 0 14 14" fill="none" xmlns="http://www.w3.org/2000/svg">
<path d="M11.0827 11.668V12.8346H2.91602V11.668H11.0827ZM9.33268 7.71005C9.31347 8.09504 9.19919 8.46928 9.00003 8.79932C8.80087 9.12935 8.52306 9.40491 8.1914 9.60136C7.85975 9.79781 7.48459 9.90903 7.09946 9.92509C6.71432 9.94115 6.33121 9.86154 5.98435 9.69339C5.58456 9.52043 5.2455 9.23204 5.01063 8.86519C4.77576 8.49833 4.65576 8.0697 4.66602 7.63422V2.92089H3.49935V7.71005C3.51908 8.25921 3.66785 8.796 3.93359 9.27698C4.19934 9.75795 4.5746 10.1696 5.02901 10.4786C5.48341 10.7876 6.00418 10.9852 6.54918 11.0556C7.09417 11.1259 7.64806 11.0669 8.16602 10.8834C8.855 10.6537 9.45276 10.2103 9.8724 9.61757C10.292 9.02483 10.5117 8.31369 10.4993 7.58755V2.92089H9.33268V7.71005ZM9.33268 2.91797H10.4993H9.33268ZM4.66602 2.91797H3.49935H4.66602Z" fill="black"/>
</svg>
