<svg width="12" height="12" viewBox="0 0 12 12" fill="none" xmlns="http://www.w3.org/2000/svg">
<path d="M2 5.25C1.6 5.25 1.25 5.6 1.25 6C1.25 6.4 1.6 6.75 2 6.75C2.4 6.75 2.75 6.4 2.75 6C2.75 5.6 2.4 5.25 2 5.25ZM2 2.75C1.6 2.75 1.25 3.1 1.25 3.5C1.25 3.9 1.6 4.25 2 4.25C2.4 4.25 2.75 3.9 2.75 3.5C2.75 3.1 2.4 2.75 2 2.75ZM2 7.75C1.6 7.75 1.25 8.1 1.25 8.5C1.25 8.9 1.6 9.25 2 9.25C2.4 9.25 2.75 8.9 2.75 8.5C2.75 8.1 2.4 7.75 2 7.75ZM3.75 3V4H10.75V3H3.75ZM3.75 9H10.75V8H3.75V9ZM3.75 6.5H10.75V5.5H3.75V6.5Z" fill="black"/>
</svg>
