<svg width="12" height="16" viewBox="0 0 12 16" fill="none" xmlns="http://www.w3.org/2000/svg">
<path d="M10.0156 6.35375L6.26561 11.3538C6.23078 11.4002 6.18942 11.4371 6.1439 11.4623C6.09837 11.4874 6.04958 11.5004 6.0003 11.5004C5.95101 11.5004 5.90222 11.4874 5.85669 11.4623C5.81117 11.4371 5.76981 11.4002 5.73498 11.3538L1.98498 6.35375C1.93248 6.28382 1.89672 6.1947 1.88222 6.09765C1.86773 6.00061 1.87515 5.90002 1.90356 5.8086C1.93197 5.71719 1.98008 5.63908 2.0418 5.58414C2.10352 5.5292 2.17608 5.49992 2.2503 5.5H9.75029C9.82451 5.49992 9.89707 5.5292 9.95879 5.58414C10.0205 5.63908 10.0686 5.71719 10.097 5.8086C10.1254 5.90002 10.1329 6.00061 10.1184 6.09765C10.1039 6.1947 10.0681 6.28382 10.0156 6.35375Z" fill="#A6A6A6"/>
</svg>
