<svg width="42" height="42" viewBox="0 0 42 42" fill="none" xmlns="http://www.w3.org/2000/svg">
<path d="M7.22069 34.9999C6.94769 34.9999 6.70619 34.9352 6.49619 34.8057C6.28619 34.6762 6.12286 34.5053 6.00619 34.2929C5.88019 34.0841 5.81019 33.8584 5.79619 33.6157C5.78452 33.3719 5.85336 33.1263 6.00269 32.8789L19.7752 9.12094C19.9245 8.87361 20.1042 8.69394 20.3142 8.58194C20.5242 8.46994 20.7529 8.41394 21.0002 8.41394C21.2475 8.41394 21.4756 8.46994 21.6844 8.58194C21.8933 8.69394 22.0729 8.87361 22.2234 9.12094L35.9977 32.8789C36.147 33.1263 36.2153 33.3713 36.2024 33.6139C36.1908 33.8589 36.1208 34.0853 35.9924 34.2929C35.8758 34.5053 35.7124 34.6762 35.5024 34.8057C35.2924 34.9352 35.0515 34.9999 34.7797 34.9999H7.22069ZM21.0002 30.8279C21.3059 30.8279 21.5619 30.7247 21.7684 30.5182C21.9749 30.3117 22.0776 30.0556 22.0764 29.7499C22.0753 29.4443 21.972 29.1888 21.7667 28.9834C21.5614 28.7781 21.3059 28.6743 21.0002 28.6719C20.6945 28.6696 20.439 28.7729 20.2337 28.9817C20.0284 29.1905 19.9251 29.4466 19.9239 29.7499C19.9228 30.0533 20.026 30.3094 20.2337 30.5182C20.4414 30.727 20.6969 30.8303 21.0002 30.8279ZM21.0002 26.9237C21.2499 26.9237 21.4581 26.8397 21.6249 26.6717C21.7918 26.5037 21.8752 26.296 21.8752 26.0487V19.0487C21.8752 18.8002 21.7912 18.5919 21.6232 18.4239C21.4552 18.2559 21.2469 18.1725 20.9984 18.1737C20.7499 18.1749 20.5423 18.2583 20.3754 18.4239C20.2086 18.5896 20.1252 18.7979 20.1252 19.0487V26.0487C20.1252 26.296 20.2092 26.5037 20.3772 26.6717C20.5452 26.8397 20.7534 26.9237 21.0019 26.9237" fill="#CC0A0A"/>
</svg>
