<svg width="42" height="42" viewBox="0 0 42 42" fill="none" xmlns="http://www.w3.org/2000/svg">
<path d="M21 3C30.9414 3 39 11.0586 39 21C39 30.9414 30.9414 39 21 39C11.0586 39 3 30.9414 3 21C3 11.0586 11.0586 3 21 3ZM21 26.4C20.5226 26.4 20.0648 26.5896 19.7272 26.9272C19.3896 27.2648 19.2 27.7226 19.2 28.2C19.2 28.6774 19.3896 29.1352 19.7272 29.4728C20.0648 29.8104 20.5226 30 21 30C21.4774 30 21.9352 29.8104 22.2728 29.4728C22.6104 29.1352 22.8 28.6774 22.8 28.2C22.8 27.7226 22.6104 27.2648 22.2728 26.9272C21.9352 26.5896 21.4774 26.4 21 26.4ZM21 10.2C20.5591 10.2001 20.1336 10.3619 19.8041 10.6549C19.4747 10.9479 19.2642 11.3515 19.2126 11.7894L19.2 12V22.8C19.2005 23.2588 19.3762 23.7001 19.6911 24.0337C20.0061 24.3673 20.4365 24.568 20.8945 24.5949C21.3525 24.6218 21.8035 24.4728 22.1553 24.1783C22.5071 23.8839 22.7332 23.4662 22.7874 23.0106L22.8 22.8V12C22.8 11.5226 22.6104 11.0648 22.2728 10.7272C21.9352 10.3896 21.4774 10.2 21 10.2Z" fill="#F7A818"/>
<path d="M21 3C30.9414 3 39 11.0586 39 21C39 30.9414 30.9414 39 21 39C11.0586 39 3 30.9414 3 21C3 11.0586 11.0586 3 21 3ZM21 26.4C20.5226 26.4 20.0648 26.5896 19.7272 26.9272C19.3896 27.2648 19.2 27.7226 19.2 28.2C19.2 28.6774 19.3896 29.1352 19.7272 29.4728C20.0648 29.8104 20.5226 30 21 30C21.4774 30 21.9352 29.8104 22.2728 29.4728C22.6104 29.1352 22.8 28.6774 22.8 28.2C22.8 27.7226 22.6104 27.2648 22.2728 26.9272C21.9352 26.5896 21.4774 26.4 21 26.4ZM21 10.2C20.5591 10.2001 20.1336 10.3619 19.8041 10.6549C19.4747 10.9479 19.2642 11.3515 19.2126 11.7894L19.2 12V22.8C19.2005 23.2588 19.3762 23.7001 19.6911 24.0337C20.0061 24.3673 20.4365 24.568 20.8945 24.5949C21.3525 24.6218 21.8035 24.4728 22.1553 24.1783C22.5071 23.8839 22.7332 23.4662 22.7874 23.0106L22.8 22.8V12C22.8 11.5226 22.6104 11.0648 22.2728 10.7272C21.9352 10.3896 21.4774 10.2 21 10.2Z" fill="#F7A818"/>
</svg>
