<svg width="42" height="42" viewBox="0 0 42 42" fill="none" xmlns="http://www.w3.org/2000/svg">
<path fill-rule="evenodd" clip-rule="evenodd" d="M21 36.75C23.0683 36.75 25.1164 36.3426 27.0273 35.5511C28.9381 34.7596 30.6744 33.5995 32.1369 32.1369C33.5995 30.6744 34.7596 28.9381 35.5511 27.0273C36.3426 25.1164 36.75 23.0683 36.75 21C36.75 18.9317 36.3426 16.8836 35.5511 14.9727C34.7596 13.0619 33.5995 11.3256 32.1369 9.86307C30.6744 8.40055 28.9381 7.24041 27.0273 6.4489C25.1164 5.65739 23.0683 5.25 21 5.25C16.8228 5.25 12.8168 6.90937 9.86307 9.86307C6.90937 12.8168 5.25 16.8228 5.25 21C5.25 25.1772 6.90937 29.1832 9.86307 32.1369C12.8168 35.0906 16.8228 36.75 21 36.75ZM20.594 27.37L29.344 16.87L26.656 14.63L19.131 23.6583L15.2372 19.7628L12.7628 22.2372L18.0128 27.4872L19.3673 28.8418L20.594 27.37Z" fill="#7C35D9"/>
</svg>
