<svg width="24" height="24" viewBox="0 0 24 24" fill="none" xmlns="http://www.w3.org/2000/svg">
<circle cx="12" cy="12" r="12" fill="#522193"/>
<path d="M10.104 16.3808L16.6808 7.32071C16.836 7.1069 17.017 7 17.224 7C17.4309 7 17.612 7.1069 17.7672 7.32071C17.9224 7.53452 18 7.7886 18 8.08294C18 8.37728 17.9224 8.631 17.7672 8.8441L10.6472 18.6793C10.492 18.8931 10.3109 19 10.104 19C9.89703 19 9.71596 18.8931 9.56075 18.6793L6.22385 14.0824C6.06865 13.8686 5.99415 13.6149 6.00036 13.3212C6.00657 13.0276 6.08753 12.7735 6.24325 12.559C6.39898 12.3445 6.58341 12.2376 6.79656 12.2383C7.00971 12.239 7.19388 12.3459 7.34909 12.559L10.104 16.3808Z" fill="white"/>
</svg>
