<svg width="23" height="23" viewBox="0 0 23 23" fill="none" xmlns="http://www.w3.org/2000/svg">
<path d="M15.3673 2.88919C15.8833 2.37303 16.5763 2.07246 17.3058 2.04843C18.0353 2.02441 18.7466 2.27873 19.2955 2.75982L19.4335 2.88919L20.111 3.56673C20.6269 4.08272 20.9273 4.77556 20.9513 5.50481C20.9753 6.23406 20.7212 6.94516 20.2404 7.49398L20.111 7.63199L9.36618 18.3778C9.21426 18.5297 9.03022 18.6456 8.8276 18.717L8.67235 18.7621L4.40393 19.7472C4.25437 19.782 4.09864 19.7804 3.94986 19.7424C3.80108 19.7044 3.6636 19.6312 3.549 19.529C3.4344 19.4268 3.34604 19.2986 3.29135 19.1551C3.23667 19.0116 3.21726 18.8571 3.23476 18.7046L3.25393 18.5963L4.23814 14.3269C4.28676 14.1175 4.38173 13.9217 4.51605 13.7538L4.62243 13.634L15.3673 2.88919ZM14.6897 6.2769L6.0743 14.8923L5.4648 17.5354L8.10789 16.9249L16.7233 8.30953L14.6897 6.2769ZM18.0784 4.24428C17.9134 4.07927 17.6938 3.98015 17.4609 3.96551C17.228 3.95086 16.9978 4.0217 16.8134 4.16474L16.7233 4.24428L16.0448 4.92182L18.0784 6.95444L18.7559 6.2769C18.9209 6.11188 19.0201 5.89233 19.0347 5.65943C19.0493 5.42653 18.9785 5.19629 18.8355 5.0119L18.7559 4.92182L18.0784 4.24428Z" fill="#522193"/>
</svg>
